{
  "accessors": [
    {
      "bufferView": 2,
      "componentType": 5126,
      "count": 1555,
      "max": [
        1.0909205675125122,
        13.445926666259766,
        1.0909205675125122
      ],
      "min": [
        -1.0909205675125122,
        0.4593278169631958,
        -1.0909205675125122
      ],
      "type": "VEC3"
    },
    {
      "bufferView": 2,
      "byteOffset": 18660,
      "componentType": 5126,
      "count": 1555,
      "max": [
        1.0,
        1.0,
        1.0
      ],
      "min": [
        -1.0,
        -1.0,
        -1.0
      ],
      "type": "VEC3"
    },
    {
      "bufferView": 3,
      "componentType": 5126,
      "count": 1555,
      "max": [
        1.0,
        1.0,
        1.0,
        1.0
      ],
      "min": [
        -1.0,
        -1.0,
        -1.0,
        1.0
      ],
      "type": "VEC4"
    },
    {
      "bufferView": 1,
      "componentType": 5126,
      "count": 1555,
      "max": [
        0.994011640548706,
        0.99609375
      ],
      "min": [
        0.00390625,
        0.0039101243019104
      ],
      "type": "VEC2"
    },
    {
      "bufferView": 0,
      "componentType": 5125,
      "count": 2604,
      "type": "SCALAR"
    },
    {
      "bufferView": 2,
      "byteOffset": 37320,
      "componentType": 5126,
      "count": 16,
      "max": [
        0.6634892821311951,
        12.016531944274902,
        0.6634892821311951
      ],
      "min": [
        -0.6634892821311951,
        10.274621963500977,
        -0.6634892821311951
      ],
      "type": "VEC3"
    },
    {
      "bufferView": 2,
      "byteOffset": 37512,
      "componentType": 5126,
      "count": 16,
      "max": [
        0.9786325097084045,
        -0.20561739802360535,
        0.9786324501037598
      ],
      "min": [
        -0.9786325097084045,
        -0.2056175023317337,
        -0.9786325097084045
      ],
      "type": "VEC3"
    },
    {
      "bufferView": 3,
      "byteOffset": 24880,
      "componentType": 5126,
      "count": 16,
      "max": [
        0.0001055192478816025,
        -4.721085133496672e-05,
        1.0,
        1.0
      ],
      "min": [
        -1.0,
        -0.9786325097084045,
        -0.20561756193637848,
        1.0
      ],
      "type": "VEC4"
    },
    {
      "bufferView": 1,
      "byteOffset": 12440,
      "componentType": 5126,
      "count": 16,
      "max": [
        0.9501937031745911,
        0.9420032501220703
      ],
      "min": [
        0.41088417172431946,
        0.07114624977111816
      ],
      "type": "VEC2"
    },
    {
      "bufferView": 0,
      "byteOffset": 10416,
      "componentType": 5125,
      "count": 24,
      "type": "SCALAR"
    }
  ],
  "asset": {
    "extras": {
      "author": "DuboviiNosok (https://sketchfab.com/Dubovii_nosok)",
      "license": "CC-BY-4.0 (http://creativecommons.org/licenses/by/4.0/)",
      "source": "https://sketchfab.com/3d-models/lamp-post-8fbfab629a474631aba7f80d81609302",
      "title": "Lamp post"
    },
    "generator": "Sketchfab-13.12.0",
    "version": "2.0"
  },
  "bufferViews": [
    {
      "buffer": 0,
      "byteLength": 10512,
      "name": "floatBufferViews",
      "target": 34963
    },
    {
      "buffer": 0,
      "byteLength": 12568,
      "byteOffset": 10512,
      "byteStride": 8,
      "name": "floatBufferViews",
      "target": 34962
    },
    {
      "buffer": 0,
      "byteLength": 37704,
      "byteOffset": 23080,
      "byteStride": 12,
      "name": "floatBufferViews",
      "target": 34962
    },
    {
      "buffer": 0,
      "byteLength": 25136,
      "byteOffset": 60784,
      "byteStride": 16,
      "name": "floatBufferViews",
      "target": 34962
    }
  ],
  "buffers": [
    {
      "byteLength": 85920,
      "uri": "scene.bin"
    }
  ],
  "images": [
    {
      "uri": "textures/w12w12m_baseColor.png"
    },
    {
      "uri": "textures/w12w12m_metallicRoughness.png"
    },
    {
      "uri": "textures/w12w12m_normal.png"
    },
    {
      "uri": "textures/w12w12l_baseColor.png"
    },
    {
      "uri": "textures/w12w12l_metallicRoughness.png"
    },
    {
      "uri": "textures/w12w12l_emissive.png"
    },
    {
      "uri": "textures/w12w12l_normal.png"
    }
  ],
  "materials": [
    {
      "doubleSided": true,
      "name": "w12w12m",
      "normalTexture": {
        "index": 2
      },
      "pbrMetallicRoughness": {
        "baseColorTexture": {
          "index": 0
        },
        "metallicRoughnessTexture": {
          "index": 1
        }
      }
    },
    {
      "doubleSided": true,
      "emissiveFactor": [
        1.0,
        1.0,
        1.0
      ],
      "emissiveTexture": {
        "index": 5
      },
      "name": "w12w12l",
      "normalTexture": {
        "index": 6
      },
      "pbrMetallicRoughness": {
        "baseColorTexture": {
          "index": 3
        },
        "metallicRoughnessTexture": {
          "index": 4
        }
      }
    }
  ],
  "meshes": [
    {
      "name": "w12:w12:pCylinder3_w12:w12:m_0",
      "primitives": [
        {
          "attributes": {
            "NORMAL": 1,
            "POSITION": 0,
            "TANGENT": 2,
            "TEXCOORD_0": 3
          },
          "indices": 4,
          "material": 0,
          "mode": 4
        }
      ]
    },
    {
      "name": "w12:w12:pCylinder3_w12:w12:l_0",
      "primitives": [
        {
          "attributes": {
            "NORMAL": 6,
            "POSITION": 5,
            "TANGENT": 7,
            "TEXCOORD_0": 8
          },
          "indices": 9,
          "material": 1,
          "mode": 4
        }
      ]
    }
  ],
  "nodes": [
    {
      "children": [
        1
      ],
      "matrix": [
        1.0,
        0.0,
        0.0,
        0.0,
        0.0,
        2.220446049250313e-16,
        -1.0,
        0.0,
        0.0,
        1.0,
        2.220446049250313e-16,
        0.0,
        0.0,
        0.0,
        0.0,
        1.0
      ],
      "name": "Sketchfab_model"
    },
    {
      "children": [
        2
      ],
      "matrix": [
        0.009999999776482582,
        0.0,
        0.0,
        0.0,
        0.0,
        0.0,
        0.009999999776482582,
        0.0,
        0.0,
        -0.009999999776482582,
        0.0,
        0.0,
        0.0,
        0.0,
        0.0,
        1.0
      ],
      "name": "6c40c00306c34a189364febc75bb7630.fbx"
    },
    {
      "children": [
        3
      ],
      "name": "RootNode"
    },
    {
      "children": [
        4,
        5
      ],
      "matrix": [
        62.19208908081055,
        0.0,
        0.0,
        0.0,
        0.0,
        62.19208908081055,
        0.0,
        0.0,
        0.0,
        0.0,
        62.19208908081055,
        0.0,
        0.0,
        -134.0009002685547,
        0.0,
        1.0
      ],
      "name": "w12:w12:pCylinder3"
    },
    {
      "mesh": 0,
      "name": "w12:w12:pCylinder3_w12:w12:m_0"
    },
    {
      "mesh": 1,
      "name": "w12:w12:pCylinder3_w12:w12:l_0"
    }
  ],
  "samplers": [
    {
      "magFilter": 9729,
      "minFilter": 9987,
      "wrapS": 10497,
      "wrapT": 10497
    }
  ],
  "scene": 0,
  "scenes": [
    {
      "name": "Sketchfab_Scene",
      "nodes": [
        0
      ]
    }
  ],
  "textures": [
    {
      "sampler": 0,
      "source": 0
    },
    {
      "sampler": 0,
      "source": 1
    },
    {
      "sampler": 0,
      "source": 2
    },
    {
      "sampler": 0,
      "source": 3
    },
    {
      "sampler": 0,
      "source": 4
    },
    {
      "sampler": 0,
      "source": 5
    },
    {
      "sampler": 0,
      "source": 6
    }
  ]
}
