{
  "accessors": [
    {
      "bufferView": 2,
      "componentType": 5126,
      "count": 65532,
      "max": [
        9683281.0,
        11067.0,
        -3241831.25
      ],
      "min": [
        9660274.0,
        7695.0,
        -3266285.5
      ],
      "type": "VEC3"
    },
    {
      "bufferView": 2,
      "byteOffset": 786384,
      "componentType": 5126,
      "count": 65532,
      "max": [
        0.9001865983009338,
        1.0,
        0.9273383617401123
      ],
      "min": [
        -0.9389632344245911,
        0.22687917947769165,
        -0.9485432505607605
      ],
      "type": "VEC3"
    },
    {
      "bufferView": 3,
      "componentType": 5126,
      "count": 65532,
      "max": [
        1.0,
        0.9686456918716431,
        0.2742895781993866,
        -1.0
      ],
      "min": [
        0.24844056367874146,
        -0.9537192583084106,
        -0.15813404321670532,
        -1.0
      ],
      "type": "VEC4"
    },
    {
      "bufferView": 1,
      "componentType": 5126,
      "count": 65532,
      "max": [
        1.0,
        1.0
      ],
      "min": [
        0.0,
        0.0
      ],
      "type": "VEC2"
    },
    {
      "bufferView": 1,
      "byteOffset": 524256,
      "componentType": 5126,
      "count": 65532,
      "max": [
        1.0,
        1.0
      ],
      "min": [
        0.0,
        0.0
      ],
      "type": "VEC2"
    },
    {
      "bufferView": 0,
      "componentType": 5125,
      "count": 384525,
      "type": "SCALAR"
    },
    {
      "bufferView": 2,
      "byteOffset": 1572768,
      "componentType": 5126,
      "count": 65532,
      "max": [
        9683250.0,
        11065.5,
        -3241831.25
      ],
      "min": [
        9660274.0,
        7795.5,
        -3263340.25
      ],
      "type": "VEC3"
    },
    {
      "bufferView": 2,
      "byteOffset": 2359152,
      "componentType": 5126,
      "count": 65532,
      "max": [
        0.9551912546157837,
        1.0,
        0.9418243765830994
      ],
      "min": [
        -0.9216775298118591,
        0.20293322205543518,
        -0.9618985056877136
      ],
      "type": "VEC3"
    },
    {
      "bufferView": 3,
      "byteOffset": 1048512,
      "componentType": 5126,
      "count": 65532,
      "max": [
        1.0,
        0.9472381472587585,
        0.3046341836452484,
        -1.0
      ],
      "min": [
        0.2583576440811157,
        -0.9660489559173584,
        -0.353986531496048,
        -1.0
      ],
      "type": "VEC4"
    },
    {
      "bufferView": 1,
      "byteOffset": 1048512,
      "componentType": 5126,
      "count": 65532,
      "max": [
        0.9986525774002075,
        1.0
      ],
      "min": [
        0.0,
        0.12043918669223785
      ],
      "type": "VEC2"
    },
    {
      "bufferView": 1,
      "byteOffset": 1572768,
      "componentType": 5126,
      "count": 65532,
      "max": [
        0.9986525774002075,
        1.0
      ],
      "min": [
        0.0,
        0.12043918669223785
      ],
      "type": "VEC2"
    },
    {
      "bufferView": 0,
      "byteOffset": 1538100,
      "componentType": 5125,
      "count": 385035,
      "type": "SCALAR"
    },
    {
      "bufferView": 2,
      "byteOffset": 3145536,
      "componentType": 5126,
      "count": 65532,
      "max": [
        9683219.0,
        11062.5,
        -3241831.25
      ],
      "min": [
        9660274.0,
        7924.5,
        -3260360.5
      ],
      "type": "VEC3"
    },
    {
      "bufferView": 2,
      "byteOffset": 3931920,
      "componentType": 5126,
      "count": 65532,
      "max": [
        0.9724012613296509,
        1.0,
        0.919391393661499
      ],
      "min": [
        -0.9466752409934998,
        0.2185327410697937,
        -0.9620199799537659
      ],
      "type": "VEC3"
    },
    {
      "bufferView": 3,
      "byteOffset": 2097024,
      "componentType": 5126,
      "count": 65532,
      "max": [
        1.0,
        0.9511756300926208,
        0.2877052426338196,
        -1.0
      ],
      "min": [
        0.23132763803005219,
        -0.9728760123252869,
        -0.2584894895553589,
        -1.0
      ],
      "type": "VEC4"
    },
    {
      "bufferView": 1,
      "byteOffset": 2097024,
      "componentType": 5126,
      "count": 65532,
      "max": [
        0.997305154800415,
        1.0
      ],
      "min": [
        0.0,
        0.24228917062282562
      ],
      "type": "VEC2"
    },
    {
      "bufferView": 1,
      "byteOffset": 2621280,
      "componentType": 5126,
      "count": 65532,
      "max": [
        0.997305154800415,
        1.0
      ],
      "min": [
        0.0,
        0.24228917062282562
      ],
      "type": "VEC2"
    },
    {
      "bufferView": 0,
      "byteOffset": 3078240,
      "componentType": 5125,
      "count": 385554,
      "type": "SCALAR"
    },
    {
      "bufferView": 2,
      "byteOffset": 4718304,
      "componentType": 5126,
      "count": 65532,
      "max": [
        9683188.0,
        11059.5,
        -3241831.25
      ],
      "min": [
        9660274.0,
        8056.5,
        -3257311.5
      ],
      "type": "VEC3"
    },
    {
      "bufferView": 2,
      "byteOffset": 5504688,
      "componentType": 5126,
      "count": 65532,
      "max": [
        0.9610368013381958,
        1.0,
        0.9645307660102844
      ],
      "min": [
        -0.9315670132637024,
        0.2185327410697937,
        -0.9633040428161621
      ],
      "type": "VEC3"
    },
    {
      "bufferView": 3,
      "byteOffset": 3145536,
      "componentType": 5126,
      "count": 65532,
      "max": [
        1.0,
        0.9495574235916138,
        0.23037531971931458,
        -1.0
      ],
      "min": [
        0.2744635045528412,
        -0.9615976214408875,
        -0.1966610848903656,
        -1.0
      ],
      "type": "VEC4"
    },
    {
      "bufferView": 1,
      "byteOffset": 3145536,
      "componentType": 5126,
      "count": 65532,
      "max": [
        0.9959577322006226,
        1.0
      ],
      "min": [
        0.0,
        0.3669709861278534
      ],
      "type": "VEC2"
    },
    {
      "bufferView": 1,
      "byteOffset": 3669792,
      "componentType": 5126,
      "count": 65532,
      "max": [
        0.9959577322006226,
        1.0
      ],
      "min": [
        0.0,
        0.3669709861278534
      ],
      "type": "VEC2"
    },
    {
      "bufferView": 0,
      "byteOffset": 4620456,
      "componentType": 5125,
      "count": 386076,
      "type": "SCALAR"
    },
    {
      "bufferView": 2,
      "byteOffset": 6291072,
      "componentType": 5126,
      "count": 65532,
      "max": [
        9683157.0,
        11259.0,
        -3241831.25
      ],
      "min": [
        9660274.0,
        8059.5,
        -3254333.0
      ],
      "type": "VEC3"
    },
    {
      "bufferView": 2,
      "byteOffset": 7077456,
      "componentType": 5126,
      "count": 65532,
      "max": [
        0.9637899398803711,
        1.0,
        0.9670272469520569
      ],
      "min": [
        -0.9747142791748047,
        0.16322579979896545,
        -0.9710719585418701
      ],
      "type": "VEC3"
    },
    {
      "bufferView": 3,
      "byteOffset": 4194048,
      "componentType": 5126,
      "count": 65532,
      "max": [
        1.0,
        0.9753347635269165,
        0.312140554189682,
        -1.0
      ],
      "min": [
        0.21122850477695465,
        -0.9774196147918701,
        -0.352276474237442,
        -1.0
      ],
      "type": "VEC4"
    },
    {
      "bufferView": 1,
      "byteOffset": 4194048,
      "componentType": 5126,
      "count": 65532,
      "max": [
        0.9946103096008301,
        1.0
      ],
      "min": [
        0.0,
        0.48876985907554626
      ],
      "type": "VEC2"
    },
    {
      "bufferView": 1,
      "byteOffset": 4718304,
      "componentType": 5126,
      "count": 65532,
      "max": [
        0.9946103096008301,
        1.0
      ],
      "min": [
        0.0,
        0.48876985907554626
      ],
      "type": "VEC2"
    },
    {
      "bufferView": 0,
      "byteOffset": 6164760,
      "componentType": 5125,
      "count": 386589,
      "type": "SCALAR"
    },
    {
      "bufferView": 2,
      "byteOffset": 7863840,
      "componentType": 5126,
      "count": 65532,
      "max": [
        9683126.0,
        12750.0,
        -3241831.25
      ],
      "min": [
        9660274.0,
        7810.5,
        -3251355.5
      ],
      "type": "VEC3"
    },
    {
      "bufferView": 2,
      "byteOffset": 8650224,
      "componentType": 5126,
      "count": 65532,
      "max": [
        0.9855109453201294,
        1.0,
        0.9747798442840576
      ],
      "min": [
        -0.9592229127883911,
        0.1545981913805008,
        -0.9682415127754211
      ],
      "type": "VEC3"
    },
    {
      "bufferView": 3,
      "byteOffset": 5242560,
      "componentType": 5126,
      "count": 65532,
      "max": [
        1.0,
        0.9642838835716248,
        0.28844812512397766,
        -1.0
      ],
      "min": [
        0.16956840455532074,
        -0.9855184555053711,
        -0.3634219169616699,
        -1.0
      ],
      "type": "VEC4"
    },
    {
      "bufferView": 1,
      "byteOffset": 5242560,
      "componentType": 5126,
      "count": 65532,
      "max": [
        0.9932629466056824,
        1.0
      ],
      "min": [
        0.0,
        0.6105278134346008
      ],
      "type": "VEC2"
    },
    {
      "bufferView": 1,
      "byteOffset": 5766816,
      "componentType": 5126,
      "count": 65532,
      "max": [
        0.9932629466056824,
        1.0
      ],
      "min": [
        0.0,
        0.6105278134346008
      ],
      "type": "VEC2"
    },
    {
      "bufferView": 0,
      "byteOffset": 7711116,
      "componentType": 5125,
      "count": 387111,
      "type": "SCALAR"
    },
    {
      "bufferView": 2,
      "byteOffset": 9436608,
      "componentType": 5126,
      "count": 65532,
      "max": [
        9683095.0,
        13203.0,
        -3241831.25
      ],
      "min": [
        9660274.0,
        7500.0,
        -3248308.5
      ],
      "type": "VEC3"
    },
    {
      "bufferView": 2,
      "byteOffset": 10222992,
      "componentType": 5126,
      "count": 65532,
      "max": [
        0.9766504168510437,
        1.0,
        0.959901750087738
      ],
      "min": [
        -0.9693889617919922,
        0.1564592570066452,
        -0.977713942527771
      ],
      "type": "VEC3"
    },
    {
      "bufferView": 3,
      "byteOffset": 6291072,
      "componentType": 5126,
      "count": 65532,
      "max": [
        1.0,
        0.971370279788971,
        0.6167662143707275,
        -1.0
      ],
      "min": [
        0.15816159546375275,
        -0.987413227558136,
        -0.3018953204154968,
        -1.0
      ],
      "type": "VEC4"
    },
    {
      "bufferView": 1,
      "byteOffset": 6291072,
      "componentType": 5126,
      "count": 65532,
      "max": [
        0.9919155240058899,
        1.0
      ],
      "min": [
        0.0,
        0.735127866268158
      ],
      "type": "VEC2"
    },
    {
      "bufferView": 1,
      "byteOffset": 6815328,
      "componentType": 5126,
      "count": 65532,
      "max": [
        0.9919155240058899,
        1.0
      ],
      "min": [
        0.0,
        0.735127866268158
      ],
      "type": "VEC2"
    },
    {
      "bufferView": 0,
      "byteOffset": 9259560,
      "componentType": 5125,
      "count": 387639,
      "type": "SCALAR"
    },
    {
      "bufferView": 2,
      "byteOffset": 11009376,
      "componentType": 5126,
      "count": 65532,
      "max": [
        9683064.0,
        12670.5,
        -3241831.25
      ],
      "min": [
        9660274.0,
        7335.0,
        -3245262.0
      ],
      "type": "VEC3"
    },
    {
      "bufferView": 2,
      "byteOffset": 11795760,
      "componentType": 5126,
      "count": 65532,
      "max": [
        0.9673673510551453,
        1.0,
        0.983025312423706
      ],
      "min": [
        -0.9667953252792358,
        0.15376804769039154,
        -0.9854902029037476
      ],
      "type": "VEC3"
    },
    {
      "bufferView": 3,
      "byteOffset": 7339584,
      "componentType": 5126,
      "count": 65532,
      "max": [
        1.0,
        0.9754787087440491,
        0.45904096961021423,
        -1.0
      ],
      "min": [
        0.20290914177894592,
        -0.9791815876960754,
        -0.40575727820396423,
        -1.0
      ],
      "type": "VEC4"
    },
    {
      "bufferView": 1,
      "byteOffset": 7339584,
      "componentType": 5126,
      "count": 65532,
      "max": [
        0.9905681014060974,
        1.0
      ],
      "min": [
        0.0,
        0.8597074151039124
      ],
      "type": "VEC2"
    },
    {
      "bufferView": 1,
      "byteOffset": 7863840,
      "componentType": 5126,
      "count": 65532,
      "max": [
        0.9905681014060974,
        1.0
      ],
      "min": [
        0.0,
        0.8597074151039124
      ],
      "type": "VEC2"
    },
    {
      "bufferView": 0,
      "byteOffset": 10810116,
      "componentType": 5125,
      "count": 388167,
      "type": "SCALAR"
    },
    {
      "bufferView": 2,
      "byteOffset": 12582144,
      "componentType": 5126,
      "count": 4945,
      "max": [
        9683064.0,
        10705.5,
        -3241831.25
      ],
      "min": [
        9660274.0,
        7333.5,
        -3257311.5
      ],
      "type": "VEC3"
    },
    {
      "bufferView": 2,
      "byteOffset": 12641484,
      "componentType": 5126,
      "count": 4945,
      "max": [
        0.9167159795761108,
        0.999942421913147,
        0.9414369463920593
      ],
      "min": [
        -0.9609917402267456,
        0.25456711649894714,
        -0.6286141276359558
      ],
      "type": "VEC3"
    },
    {
      "bufferView": 3,
      "byteOffset": 8388096,
      "componentType": 5126,
      "count": 4945,
      "max": [
        1.0,
        0.9654372930526733,
        0.2753507196903229,
        -1.0
      ],
      "min": [
        0.26063287258148193,
        -0.9167832136154175,
        -0.2114199995994568,
        -1.0
      ],
      "type": "VEC4"
    },
    {
      "bufferView": 1,
      "byteOffset": 8388096,
      "componentType": 5126,
      "count": 4945,
      "max": [
        0.9905681014060974,
        1.0
      ],
      "min": [
        0.0,
        0.3669709861278534
      ],
      "type": "VEC2"
    },
    {
      "bufferView": 1,
      "byteOffset": 8427656,
      "componentType": 5126,
      "count": 4945,
      "max": [
        0.9905681014060974,
        1.0
      ],
      "min": [
        0.0,
        0.3669709861278534
      ],
      "type": "VEC2"
    },
    {
      "bufferView": 0,
      "byteOffset": 12362784,
      "componentType": 5125,
      "count": 25176,
      "type": "SCALAR"
    }
  ],
  "asset": {
    "extras": {
      "author": "Xavier Fischer - Elevation API (https://sketchfab.com/xfischer)",
      "license": "CC-BY-NC-SA-4.0 (http://creativecommons.org/licenses/by-nc-sa/4.0/)",
      "source": "https://sketchfab.com/3d-models/mount-everest-tibet-nepal-745d86125b72485fa45e1e8768216d0a",
      "title": "Mount Everest, Tibet-Nepal"
    },
    "generator": "Sketchfab-12.68.0",
    "version": "2.0"
  },
  "bufferViews": [
    {
      "buffer": 0,
      "byteLength": 12463488,
      "name": "floatBufferViews",
      "target": 34963
    },
    {
      "buffer": 0,
      "byteLength": 8467216,
      "byteOffset": 12463488,
      "byteStride": 8,
      "name": "floatBufferViews",
      "target": 34962
    },
    {
      "buffer": 0,
      "byteLength": 12700824,
      "byteOffset": 20930704,
      "byteStride": 12,
      "name": "floatBufferViews",
      "target": 34962
    },
    {
      "buffer": 0,
      "byteLength": 8467216,
      "byteOffset": 33631528,
      "byteStride": 16,
      "name": "floatBufferViews",
      "target": 34962
    }
  ],
  "buffers": [
    {
      "byteLength": 42098744,
      "uri": "scene.bin"
    }
  ],
  "images": [
    {
      "uri": "textures/material_0_baseColor.jpeg"
    },
    {
      "uri": "textures/material_0_normal.png"
    }
  ],
  "materials": [
    {
      "doubleSided": true,
      "name": "material_0",
      "normalTexture": {
        "index": 1,
        "texCoord": 1
      },
      "pbrMetallicRoughness": {
        "baseColorTexture": {
          "index": 0
        },
        "metallicFactor": 0.0
      }
    }
  ],
  "meshes": [
    {
      "name": "Object_0",
      "primitives": [
        {
          "attributes": {
            "NORMAL": 1,
            "POSITION": 0,
            "TANGENT": 2,
            "TEXCOORD_0": 3,
            "TEXCOORD_1": 4
          },
          "indices": 5,
          "material": 0,
          "mode": 4
        }
      ]
    },
    {
      "name": "Object_1",
      "primitives": [
        {
          "attributes": {
            "NORMAL": 7,
            "POSITION": 6,
            "TANGENT": 8,
            "TEXCOORD_0": 9,
            "TEXCOORD_1": 10
          },
          "indices": 11,
          "material": 0,
          "mode": 4
        }
      ]
    },
    {
      "name": "Object_2",
      "primitives": [
        {
          "attributes": {
            "NORMAL": 13,
            "POSITION": 12,
            "TANGENT": 14,
            "TEXCOORD_0": 15,
            "TEXCOORD_1": 16
          },
          "indices": 17,
          "material": 0,
          "mode": 4
        }
      ]
    },
    {
      "name": "Object_3",
      "primitives": [
        {
          "attributes": {
            "NORMAL": 19,
            "POSITION": 18,
            "TANGENT": 20,
            "TEXCOORD_0": 21,
            "TEXCOORD_1": 22
          },
          "indices": 23,
          "material": 0,
          "mode": 4
        }
      ]
    },
    {
      "name": "Object_4",
      "primitives": [
        {
          "attributes": {
            "NORMAL": 25,
            "POSITION": 24,
            "TANGENT": 26,
            "TEXCOORD_0": 27,
            "TEXCOORD_1": 28
          },
          "indices": 29,
          "material": 0,
          "mode": 4
        }
      ]
    },
    {
      "name": "Object_5",
      "primitives": [
        {
          "attributes": {
            "NORMAL": 31,
            "POSITION": 30,
            "TANGENT": 32,
            "TEXCOORD_0": 33,
            "TEXCOORD_1": 34
          },
          "indices": 35,
          "material": 0,
          "mode": 4
        }
      ]
    },
    {
      "name": "Object_6",
      "primitives": [
        {
          "attributes": {
            "NORMAL": 37,
            "POSITION": 36,
            "TANGENT": 38,
            "TEXCOORD_0": 39,
            "TEXCOORD_1": 40
          },
          "indices": 41,
          "material": 0,
          "mode": 4
        }
      ]
    },
    {
      "name": "Object_7",
      "primitives": [
        {
          "attributes": {
            "NORMAL": 43,
            "POSITION": 42,
            "TANGENT": 44,
            "TEXCOORD_0": 45,
            "TEXCOORD_1": 46
          },
          "indices": 47,
          "material": 0,
          "mode": 4
        }
      ]
    },
    {
      "name": "Object_8",
      "primitives": [
        {
          "attributes": {
            "NORMAL": 49,
            "POSITION": 48,
            "TANGENT": 50,
            "TEXCOORD_0": 51,
            "TEXCOORD_1": 52
          },
          "indices": 53,
          "material": 0,
          "mode": 4
        }
      ]
    }
  ],
  "nodes": [
    {
      "children": [
        1
      ],
      "matrix": [
        1.0,
        0.0,
        0.0,
        0.0,
        0.0,
        2.220446049250313e-16,
        -1.0,
        0.0,
        0.0,
        1.0,
        2.220446049250313e-16,
        0.0,
        0.0,
        0.0,
        0.0,
        1.0
      ],
      "name": "Sketchfab_model"
    },
    {
      "children": [
        2
      ],
      "name": "root"
    },
    {
      "children": [
        3
      ],
      "matrix": [
        1.0,
        0.0,
        0.0,
        0.0,
        0.0,
        2.220446049250313e-16,
        1.0,
        0.0,
        0.0,
        -1.0,
        2.220446049250313e-16,
        0.0,
        0.0,
        0.0,
        0.0,
        1.0
      ],
      "name": "GLTF_SceneRootNode"
    },
    {
      "children": [
        4,
        5,
        6,
        7,
        8,
        9,
        10,
        11,
        12
      ],
      "name": "_0"
    },
    {
      "mesh": 0,
      "name": "Object_4"
    },
    {
      "mesh": 1,
      "name": "Object_5"
    },
    {
      "mesh": 2,
      "name": "Object_6"
    },
    {
      "mesh": 3,
      "name": "Object_7"
    },
    {
      "mesh": 4,
      "name": "Object_8"
    },
    {
      "mesh": 5,
      "name": "Object_9"
    },
    {
      "mesh": 6,
      "name": "Object_10"
    },
    {
      "mesh": 7,
      "name": "Object_11"
    },
    {
      "mesh": 8,
      "name": "Object_12"
    }
  ],
  "samplers": [
    {
      "magFilter": 9729,
      "minFilter": 9987,
      "wrapS": 10497,
      "wrapT": 10497
    }
  ],
  "scene": 0,
  "scenes": [
    {
      "name": "Sketchfab_Scene",
      "nodes": [
        0
      ]
    }
  ],
  "textures": [
    {
      "sampler": 0,
      "source": 0
    },
    {
      "sampler": 0,
      "source": 1
    }
  ]
}
