{
  "accessors": [
    {
      "bufferView": 2,
      "componentType": 5126,
      "count": 1732,
      "max": [
        0.7554119825363159,
        1.5250489711761475,
        8.11637020111084
      ],
      "min": [
        -0.7554119825363159,
        -3.290105104446411,
        -0.0671520009636879
      ],
      "type": "VEC3"
    },
    {
      "bufferView": 2,
      "byteOffset": 20784,
      "componentType": 5126,
      "count": 1732,
      "max": [
        1.0,
        1.0,
        1.0
      ],
      "min": [
        -1.0,
        -1.0,
        -1.0
      ],
      "type": "VEC3"
    },
    {
      "bufferView": 3,
      "componentType": 5126,
      "count": 1732,
      "max": [
        1.0,
        1.0,
        0.9999980330467224,
        1.0
      ],
      "min": [
        -1.0,
        -1.0,
        -0.9997881054878235,
        -1.0
      ],
      "type": "VEC4"
    },
    {
      "bufferView": 1,
      "componentType": 5126,
      "count": 1732,
      "max": [
        1.996140956878662,
        0.9976860284805298
      ],
      "min": [
        0.0022589999716728926,
        0.0039980001747608185
      ],
      "type": "VEC2"
    },
    {
      "bufferView": 0,
      "componentType": 5125,
      "count": 4836,
      "type": "SCALAR"
    }
  ],
  "asset": {
    "extras": {
      "author": "katsiaryna_kruhlenia (https://sketchfab.com/kashiarita)",
      "license": "CC-BY-4.0 (http://creativecommons.org/licenses/by/4.0/)",
      "source": "https://sketchfab.com/3d-models/stylized-lamp-post-720b1022fdfa42499f436c93c757c7ce",
      "title": "Stylized Lamp Post"
    },
    "generator": "Sketchfab-12.67.0",
    "version": "2.0"
  },
  "bufferViews": [
    {
      "buffer": 0,
      "byteLength": 19344,
      "name": "floatBufferViews",
      "target": 34963
    },
    {
      "buffer": 0,
      "byteLength": 13856,
      "byteOffset": 19344,
      "byteStride": 8,
      "name": "floatBufferViews",
      "target": 34962
    },
    {
      "buffer": 0,
      "byteLength": 41568,
      "byteOffset": 33200,
      "byteStride": 12,
      "name": "floatBufferViews",
      "target": 34962
    },
    {
      "buffer": 0,
      "byteLength": 27712,
      "byteOffset": 74768,
      "byteStride": 16,
      "name": "floatBufferViews",
      "target": 34962
    }
  ],
  "buffers": [
    {
      "byteLength": 102480,
      "uri": "scene.bin"
    }
  ],
  "images": [
    {
      "uri": "textures/lamp_low2lambert2SG_baseColor.png"
    },
    {
      "uri": "textures/lamp_low2lambert2SG_metallicRoughness.png"
    },
    {
      "uri": "textures/lamp_low2lambert2SG_emissive.png"
    },
    {
      "uri": "textures/lamp_low2lambert2SG_normal.png"
    }
  ],
  "materials": [
    {
      "doubleSided": true,
      "emissiveFactor": [
        0.8672910326796223,
        0.8672910326796223,
        0.8672910326796223
      ],
      "emissiveTexture": {
        "index": 2
      },
      "name": "lamp_low2lambert2SG",
      "normalTexture": {
        "index": 3
      },
      "occlusionTexture": {
        "index": 1
      },
      "pbrMetallicRoughness": {
        "baseColorTexture": {
          "index": 0
        },
        "metallicRoughnessTexture": {
          "index": 1
        }
      }
    }
  ],
  "meshes": [
    {
      "name": "Object_0",
      "primitives": [
        {
          "attributes": {
            "NORMAL": 1,
            "POSITION": 0,
            "TANGENT": 2,
            "TEXCOORD_0": 3
          },
          "indices": 4,
          "material": 0,
          "mode": 4
        }
      ]
    }
  ],
  "nodes": [
    {
      "children": [
        1
      ],
      "matrix": [
        1.0,
        0.0,
        0.0,
        0.0,
        0.0,
        2.220446049250313e-16,
        -1.0,
        0.0,
        0.0,
        1.0,
        2.220446049250313e-16,
        0.0,
        0.0,
        0.0,
        0.0,
        1.0
      ],
      "name": "Sketchfab_model"
    },
    {
      "children": [
        2
      ],
      "name": "5b786b2b412144ab834f3249521f54f8.obj.cleaner.materialmerger.gles"
    },
    {
      "mesh": 0,
      "name": "Object_2"
    }
  ],
  "samplers": [
    {
      "magFilter": 9729,
      "minFilter": 9987,
      "wrapS": 10497,
      "wrapT": 10497
    }
  ],
  "scene": 0,
  "scenes": [
    {
      "name": "Sketchfab_Scene",
      "nodes": [
        0
      ]
    }
  ],
  "textures": [
    {
      "sampler": 0,
      "source": 0
    },
    {
      "sampler": 0,
      "source": 1
    },
    {
      "sampler": 0,
      "source": 2
    },
    {
      "sampler": 0,
      "source": 3
    }
  ]
}
