{
  "accessors": [
    {
      "bufferView": 2,
      "componentType": 5126,
      "count": 65532,
      "max": [
        3.9219400882720947,
        7.378769874572754,
        5.602880001068115
      ],
      "min": [
        -4.48544979095459,
        -7.324389934539795,
        -1.6895099878311157
      ],
      "type": "VEC3"
    },
    {
      "bufferView": 2,
      "byteOffset": 786384,
      "componentType": 5126,
      "count": 65532,
      "max": [
        0.9999979138374329,
        0.999998927116394,
        1.0
      ],
      "min": [
        -0.9999999403953552,
        -0.9999994039535522,
        -1.0
      ],
      "type": "VEC3"
    },
    {
      "bufferView": 1,
      "componentType": 5126,
      "count": 65532,
      "max": [
        0.9998800158500671,
        0.9998800158500671
      ],
      "min": [
        0.00011999999696854502,
        0.00011999999696854502
      ],
      "type": "VEC2"
    },
    {
      "bufferView": 0,
      "componentType": 5125,
      "count": 255213,
      "type": "SCALAR"
    },
    {
      "bufferView": 2,
      "byteOffset": 1572768,
      "componentType": 5126,
      "count": 1510,
      "max": [
        4.075129985809326,
        7.23613977432251,
        4.172299861907959
      ],
      "min": [
        -4.428170204162598,
        -7.341460227966309,
        -1.5969699621200562
      ],
      "type": "VEC3"
    },
    {
      "bufferView": 2,
      "byteOffset": 1590888,
      "componentType": 5126,
      "count": 1510,
      "max": [
        0.9992469549179077,
        0.9998815059661865,
        0.9998529553413391
      ],
      "min": [
        -0.9999986886978149,
        -0.9989960193634033,
        -1.0
      ],
      "type": "VEC3"
    },
    {
      "bufferView": 1,
      "byteOffset": 524256,
      "componentType": 5126,
      "count": 1510,
      "max": [
        0.9998800158500671,
        0.9998800158500671
      ],
      "min": [
        0.00011999999696854502,
        0.004999999888241291
      ],
      "type": "VEC2"
    },
    {
      "bufferView": 0,
      "byteOffset": 1020852,
      "componentType": 5125,
      "count": 3903,
      "type": "SCALAR"
    },
    {
      "bufferView": 2,
      "byteOffset": 1609008,
      "componentType": 5126,
      "count": 65532,
      "max": [
        4.185210227966309,
        7.413730144500732,
        5.67209005355835
      ],
      "min": [
        -4.482069969177246,
        -7.413730144500732,
        -1.7220699787139893
      ],
      "type": "VEC3"
    },
    {
      "bufferView": 2,
      "byteOffset": 2395392,
      "componentType": 5126,
      "count": 65532,
      "max": [
        0.9999976754188538,
        0.999998927116394,
        1.0
      ],
      "min": [
        -0.9999953508377075,
        -1.0,
        -1.0
      ],
      "type": "VEC3"
    },
    {
      "bufferView": 1,
      "byteOffset": 536336,
      "componentType": 5126,
      "count": 65532,
      "max": [
        0.9583799839019775,
        0.9998800158500671
      ],
      "min": [
        0.00011999999696854502,
        0.04261000081896782
      ],
      "type": "VEC2"
    },
    {
      "bufferView": 0,
      "byteOffset": 1036464,
      "componentType": 5125,
      "count": 226413,
      "type": "SCALAR"
    },
    {
      "bufferView": 2,
      "byteOffset": 3181776,
      "componentType": 5126,
      "count": 22640,
      "max": [
        3.89697003364563,
        7.409200191497803,
        5.577970027923584
      ],
      "min": [
        -4.457180023193359,
        -7.2978901863098145,
        -1.6711599826812744
      ],
      "type": "VEC3"
    },
    {
      "bufferView": 2,
      "byteOffset": 3453456,
      "componentType": 5126,
      "count": 22640,
      "max": [
        0.9999897480010986,
        0.9999845027923584,
        1.0
      ],
      "min": [
        -0.9999861121177673,
        -0.999999463558197,
        -1.0
      ],
      "type": "VEC3"
    },
    {
      "bufferView": 1,
      "byteOffset": 1060592,
      "componentType": 5126,
      "count": 22640,
      "max": [
        0.958620011806488,
        0.9998800158500671
      ],
      "min": [
        0.00011999999696854502,
        0.04261000081896782
      ],
      "type": "VEC2"
    },
    {
      "bufferView": 0,
      "byteOffset": 1942116,
      "componentType": 5125,
      "count": 72609,
      "type": "SCALAR"
    },
    {
      "bufferView": 2,
      "byteOffset": 3725136,
      "componentType": 5126,
      "count": 65532,
      "max": [
        4.485499858856201,
        7.413730144500732,
        5.6528801918029785
      ],
      "min": [
        -4.479589939117432,
        -7.316050052642822,
        -1.8395600318908691
      ],
      "type": "VEC3"
    },
    {
      "bufferView": 2,
      "byteOffset": 4511520,
      "componentType": 5126,
      "count": 65532,
      "max": [
        1.0,
        0.9999942183494568,
        1.0
      ],
      "min": [
        -0.9999997615814209,
        -0.9999818801879883,
        -1.0
      ],
      "type": "VEC3"
    },
    {
      "bufferView": 1,
      "byteOffset": 1241712,
      "componentType": 5126,
      "count": 65532,
      "max": [
        0.9278600215911865,
        0.9998800158500671
      ],
      "min": [
        0.00011999999696854502,
        0.07338999956846237
      ],
      "type": "VEC2"
    },
    {
      "bufferView": 0,
      "byteOffset": 2232552,
      "componentType": 5125,
      "count": 198738,
      "type": "SCALAR"
    },
    {
      "bufferView": 2,
      "byteOffset": 5297904,
      "componentType": 5126,
      "count": 6219,
      "max": [
        4.2753400802612305,
        7.255050182342529,
        5.502960205078125
      ],
      "min": [
        -4.435530185699463,
        -7.071730136871338,
        -1.6494100093841553
      ],
      "type": "VEC3"
    },
    {
      "bufferView": 2,
      "byteOffset": 5372532,
      "componentType": 5126,
      "count": 6219,
      "max": [
        0.9999732375144958,
        0.9997488260269165,
        1.0
      ],
      "min": [
        -0.9999955296516418,
        -0.9993175268173218,
        -1.0
      ],
      "type": "VEC3"
    },
    {
      "bufferView": 1,
      "byteOffset": 1765968,
      "componentType": 5126,
      "count": 6219,
      "max": [
        0.9271199703216553,
        0.9998800158500671
      ],
      "min": [
        0.00011999999696854502,
        0.07581999897956848
      ],
      "type": "VEC2"
    },
    {
      "bufferView": 0,
      "byteOffset": 3027504,
      "componentType": 5125,
      "count": 20100,
      "type": "SCALAR"
    }
  ],
  "asset": {
    "extras": {
      "author": "artursadlos (https://sketchfab.com/artursadlos)",
      "license": "CC-BY-4.0 (http://creativecommons.org/licenses/by/4.0/)",
      "source": "https://sketchfab.com/3d-models/venice-square-1-82f10e1885c740698791608c56559d75",
      "title": "Venice Square #1"
    },
    "generator": "Sketchfab-13.17.0",
    "version": "2.0"
  },
  "bufferViews": [
    {
      "buffer": 0,
      "byteLength": 3107904,
      "name": "floatBufferViews",
      "target": 34963
    },
    {
      "buffer": 0,
      "byteLength": 1815720,
      "byteOffset": 3107904,
      "byteStride": 8,
      "name": "floatBufferViews",
      "target": 34962
    },
    {
      "buffer": 0,
      "byteLength": 5447160,
      "byteOffset": 4923624,
      "byteStride": 12,
      "name": "floatBufferViews",
      "target": 34962
    }
  ],
  "buffers": [
    {
      "byteLength": 10370784,
      "uri": "scene.bin"
    }
  ],
  "images": [
    {
      "uri": "textures/material_0_baseColor.jpeg"
    },
    {
      "uri": "textures/material_1_baseColor.jpeg"
    },
    {
      "uri": "textures/material_2_baseColor.jpeg"
    }
  ],
  "materials": [
    {
      "doubleSided": true,
      "name": "material_0",
      "pbrMetallicRoughness": {
        "baseColorTexture": {
          "index": 0
        },
        "metallicFactor": 0.0
      }
    },
    {
      "doubleSided": true,
      "name": "material_1",
      "pbrMetallicRoughness": {
        "baseColorTexture": {
          "index": 1
        },
        "metallicFactor": 0.0
      }
    },
    {
      "doubleSided": true,
      "name": "material_2",
      "pbrMetallicRoughness": {
        "baseColorTexture": {
          "index": 2
        },
        "metallicFactor": 0.0
      }
    }
  ],
  "meshes": [
    {
      "name": "Object_0",
      "primitives": [
        {
          "attributes": {
            "NORMAL": 1,
            "POSITION": 0,
            "TEXCOORD_0": 2
          },
          "indices": 3,
          "material": 0,
          "mode": 4
        }
      ]
    },
    {
      "name": "Object_1",
      "primitives": [
        {
          "attributes": {
            "NORMAL": 5,
            "POSITION": 4,
            "TEXCOORD_0": 6
          },
          "indices": 7,
          "material": 0,
          "mode": 4
        }
      ]
    },
    {
      "name": "Object_2",
      "primitives": [
        {
          "attributes": {
            "NORMAL": 9,
            "POSITION": 8,
            "TEXCOORD_0": 10
          },
          "indices": 11,
          "material": 1,
          "mode": 4
        }
      ]
    },
    {
      "name": "Object_3",
      "primitives": [
        {
          "attributes": {
            "NORMAL": 13,
            "POSITION": 12,
            "TEXCOORD_0": 14
          },
          "indices": 15,
          "material": 1,
          "mode": 4
        }
      ]
    },
    {
      "name": "Object_4",
      "primitives": [
        {
          "attributes": {
            "NORMAL": 17,
            "POSITION": 16,
            "TEXCOORD_0": 18
          },
          "indices": 19,
          "material": 2,
          "mode": 4
        }
      ]
    },
    {
      "name": "Object_5",
      "primitives": [
        {
          "attributes": {
            "NORMAL": 21,
            "POSITION": 20,
            "TEXCOORD_0": 22
          },
          "indices": 23,
          "material": 2,
          "mode": 4
        }
      ]
    }
  ],
  "nodes": [
    {
      "children": [
        1
      ],
      "matrix": [
        1.0,
        0.0,
        0.0,
        0.0,
        0.0,
        2.220446049250313e-16,
        -1.0,
        0.0,
        0.0,
        1.0,
        2.220446049250313e-16,
        0.0,
        0.0,
        0.0,
        0.0,
        1.0
      ],
      "name": "Sketchfab_model"
    },
    {
      "children": [
        2,
        3,
        4,
        5,
        6,
        7
      ],
      "name": "metascan_20220422-1537_Venice_Square_#1.obj.cleaner.materialmerger.gles"
    },
    {
      "mesh": 0,
      "name": "Object_2"
    },
    {
      "mesh": 1,
      "name": "Object_3"
    },
    {
      "mesh": 2,
      "name": "Object_4"
    },
    {
      "mesh": 3,
      "name": "Object_5"
    },
    {
      "mesh": 4,
      "name": "Object_6"
    },
    {
      "mesh": 5,
      "name": "Object_7"
    }
  ],
  "samplers": [
    {
      "magFilter": 9729,
      "minFilter": 9987,
      "wrapS": 10497,
      "wrapT": 10497
    }
  ],
  "scene": 0,
  "scenes": [
    {
      "name": "Sketchfab_Scene",
      "nodes": [
        0
      ]
    }
  ],
  "textures": [
    {
      "sampler": 0,
      "source": 0
    },
    {
      "sampler": 0,
      "source": 1
    },
    {
      "sampler": 0,
      "source": 2
    }
  ]
}
